<?xml version="1.0" encoding="UTF-8"?>
<svg version="1.1" xmlns="http://www.w3.org/2000/svg" width="512" height="512" viewBox="-140 0 652 512">
<path d="M0 0 C5.4521357 2.53134872 6.4759981 4.71399714 10 10 C10 19.9 10 29.8 10 40 C83.92 40 157.84 40 234 40 C234 30.1 234 20.2 234 10 C239.17241379 2.24137931 239.17241379 2.24137931 244 0 C249.5997712 -0.75381535 254.33499991 -0.77303575 259.5 1.625 C263.24659426 5.18426454 265.76361343 8.21184997 266.45410156 13.43505859 C266.42268066 15.27318115 266.42268066 15.27318115 266.390625 17.1484375 C266.38496521 17.80582916 266.37930542 18.46322083 266.37347412 19.14053345 C266.35126275 21.21946191 266.3011042 23.29660163 266.25 25.375 C266.22991489 26.79294368 266.21166765 28.21091465 266.1953125 29.62890625 C266.15145067 33.08650877 266.08253437 36.54307951 266 40 C267.03664795 39.98334541 267.03664795 39.98334541 268.09423828 39.96635437 C274.68196017 39.86519447 281.2694581 39.78955768 287.85778809 39.74093914 C291.24310055 39.7151012 294.62775909 39.68019381 298.01269531 39.62280273 C321.9694331 39.24654207 341.39079755 41.16638627 359.6171875 58.42578125 C373.10553394 72.99761782 378.31088556 89.10968188 378.27415466 108.67321777 C378.27861116 110.17014918 378.28392655 111.66707823 378.29002339 113.16400385 C378.30416488 117.26523041 378.30586741 121.36638104 378.30542648 125.46762848 C378.30707812 129.89593564 378.32015124 134.32421184 378.33161926 138.75250244 C378.35444287 148.43047989 378.36238724 158.10843537 378.36744571 167.78643608 C378.37070622 173.83437805 378.3772309 179.88231369 378.3844471 185.93025208 C378.40401067 202.6892247 378.42041594 219.44819143 378.42332363 236.20717621 C378.4235112 237.27908074 378.42369877 238.35098528 378.42389202 239.45537177 C378.42425827 241.62820975 378.42462196 243.80104773 378.42498314 245.97388572 C378.42516595 247.0524253 378.42534876 248.13096489 378.42553711 249.2421875 C378.42580793 250.8619817 378.42580793 250.8619817 378.42608423 252.51449901 C378.42962385 270.0016573 378.45663409 287.48869229 378.494035 304.97580785 C378.53216407 322.94786218 378.55148145 340.91985542 378.55178314 358.89195108 C378.55236673 368.97520415 378.56079454 379.05831017 378.58978081 389.14152527 C378.61435642 397.72970435 378.62153608 406.31768276 378.60653328 414.90588754 C378.59938925 419.28264808 378.60011272 423.65901288 378.62294388 428.03572845 C378.64369863 432.05313187 378.640782 436.06983947 378.62006903 440.0872367 C378.61660532 441.53007749 378.62134963 442.9729702 378.63577347 444.41574305 C378.81072998 463.14358066 372.56374277 479.89989728 359.57421875 493.6171875 C344.46072072 507.60692012 327.97513368 512.30818449 307.80822754 512.27415466 C306.14630439 512.27861013 304.48438336 512.28392519 302.82246542 512.29002339 C298.26517777 512.3041771 293.70795841 512.30586718 289.15065193 512.30542648 C284.2315442 512.30707703 279.3124644 512.32014811 274.39337158 512.33161926 C263.64104819 512.35445105 252.88874457 512.36238809 242.13640022 512.36744571 C235.41841972 512.37070519 228.70044492 512.37722923 221.98246765 512.3844471 C203.3705692 512.40401154 184.75867606 512.42041637 166.14676666 512.42332363 C164.95615768 512.4235112 163.76554869 512.42369877 162.53886065 512.42389202 C160.12535063 512.42425827 157.71184062 512.42462197 155.29833061 512.42498314 C153.50130149 512.42525735 153.50130149 512.42525735 151.66796875 512.42553711 C149.86873767 512.42580793 149.86873767 512.42580793 148.03315848 512.42608423 C128.60604779 512.42962433 109.17904806 512.45663719 89.75197583 512.494035 C69.79110033 512.53215183 49.83027982 512.55148136 29.86936712 512.55178314 C18.66829314 512.55236699 7.46735149 512.5608121 -3.73368835 512.58978081 C-13.27340446 512.61433994 -22.81293999 512.62154705 -32.35267919 512.60653328 C-37.21548899 512.59938267 -42.07794252 512.60014177 -46.94071198 512.62294388 C-51.40219391 512.64366285 -55.86304861 512.64081414 -60.3245247 512.62006903 C-61.92887127 512.61659865 -63.53326431 512.62137874 -65.13755006 512.63577347 C-84.39132796 512.79724119 -101.37359877 507.06211869 -115.6171875 493.57421875 C-129.11048122 478.9970375 -134.31375902 462.88389332 -134.26742554 443.31332397 C-134.27116529 441.81496757 -134.27576811 440.31661312 -134.28115618 438.81826174 C-134.29336167 434.71316975 -134.29312861 430.60815941 -134.29076743 426.50305343 C-134.29035864 422.07069764 -134.30140447 417.63836781 -134.31088257 413.20602417 C-134.32748072 404.52620147 -134.3329916 395.84640593 -134.33410732 387.16656868 C-134.33505848 380.10833216 -134.33917215 373.05010458 -134.34550858 365.99187088 C-134.36311872 345.96719047 -134.37234795 325.94253148 -134.37084763 305.91784327 C-134.37076772 304.83877823 -134.3706878 303.7597132 -134.37060547 302.64794922 C-134.37052371 301.5675618 -134.37044195 300.48717438 -134.37035771 299.37404795 C-134.36954515 281.87262381 -134.38867579 264.3712858 -134.4168822 246.86988656 C-134.44563589 228.88654222 -134.45942109 210.90323984 -134.45769465 192.91987193 C-134.45703155 182.82888249 -134.46248872 172.73798331 -134.48405075 162.64701462 C-134.50229537 154.05367293 -134.50658307 145.46046241 -134.4930319 136.8671097 C-134.48651845 132.48660147 -134.48632602 128.10634465 -134.5037384 123.7258606 C-134.51954669 119.70740904 -134.51652721 115.68940662 -134.49917014 111.67096551 C-134.49611717 110.22547181 -134.49966765 108.77994394 -134.51089029 107.33449058 C-134.6521517 87.83204867 -128.29562825 72.20362238 -115 58 C-101.35835773 44.86616844 -84.854803 39.46917801 -66.23828125 39.70703125 C-64.96647507 39.71127609 -63.69466888 39.71552094 -62.38432312 39.71989441 C-59.04197301 39.73373588 -55.70026659 39.76057357 -52.35809326 39.79400635 C-48.93214405 39.82497942 -45.5061277 39.83845724 -42.08007812 39.85351562 C-35.38654471 39.88642309 -28.69330941 39.93650012 -22 40 C-22.0314209 38.68394775 -22.0314209 38.68394775 -22.06347656 37.34130859 C-22.131926 34.06483317 -22.18193051 30.78912488 -22.21972656 27.51220703 C-22.23975843 26.09802205 -22.26699248 24.68391903 -22.30175781 23.27001953 C-22.35065489 21.22928581 -22.37305123 19.1896531 -22.390625 17.1484375 C-22.4220459 15.31031494 -22.4220459 15.31031494 -22.45410156 13.43505859 C-21.76361343 8.21184997 -19.24659426 5.18426454 -15.5 1.625 C-10.33499991 -0.77303575 -5.5997712 -0.75381535 0 0 Z M-101 178 C-101.94276688 180.82830065 -102.1260497 182.54926348 -102.12863445 185.47702026 C-102.1318589 186.39930955 -102.13508335 187.32159883 -102.1384055 188.27183628 C-102.1368569 189.28669574 -102.1353083 190.30155519 -102.13371277 191.34716797 C-102.13597833 192.42411139 -102.13824388 193.50105482 -102.14057809 194.6106329 C-102.146934 198.23782851 -102.14608769 201.86498691 -102.14526367 205.4921875 C-102.14825427 208.08558704 -102.15165657 210.67898614 -102.15544128 213.27238464 C-102.16375566 219.59834237 -102.16649653 225.92429077 -102.16705366 232.2502535 C-102.16752871 237.39501695 -102.16958293 242.53977732 -102.17275429 247.68453979 C-102.18156517 262.27553965 -102.18617331 276.86653214 -102.18542381 291.45753467 C-102.18538386 292.24450233 -102.1853439 293.03146999 -102.18530273 293.84228516 C-102.18526185 294.63021615 -102.18522097 295.41814715 -102.18517885 296.22995484 C-102.18477288 308.98403557 -102.19432901 321.73808671 -102.2084411 334.49215889 C-102.22282169 347.59254285 -102.22971027 360.6929124 -102.22884732 373.79330444 C-102.2285158 381.14613086 -102.23124292 388.49892631 -102.24202538 395.85174561 C-102.25210926 402.77262246 -102.25177775 409.69343302 -102.24450874 416.61431313 C-102.24346413 419.15108651 -102.24581846 421.68786398 -102.2518692 424.22463036 C-102.2596098 427.69548421 -102.25493037 431.16611371 -102.24723816 434.63696289 C-102.25238172 435.63397657 -102.25752529 436.63099026 -102.26282471 437.65821648 C-102.2000124 450.54017922 -100.11833388 461.45755757 -91 471 C-79.80991858 480.65418789 -66.72173655 480.14958974 -52.68571472 480.13371277 C-51.1192252 480.13558245 -49.55273615 480.13788378 -47.98624784 480.14057809 C-43.69295599 480.14668303 -39.39968365 480.14656404 -35.10638845 480.14538372 C-30.47164383 480.14517938 -25.83690541 480.15070158 -21.2021637 480.15544128 C-12.12630369 480.16374108 -3.05045017 480.16649582 6.02541331 480.16705366 C13.40356208 480.16752911 20.78170871 480.1695853 28.1598568 480.17275429 C49.08513119 480.18155879 70.01040047 480.18617395 90.93567673 480.18542381 C92.62714443 480.18536388 92.62714443 480.18536388 94.3527832 480.18530273 C95.48180739 480.18526185 96.61083158 480.18522097 97.77406862 480.18517885 C116.07287404 480.18477237 134.37165888 480.19434298 152.67045835 480.2084411 C171.46626246 480.22280772 190.26205654 480.22971114 209.05786628 480.22884732 C219.60759995 480.22851547 230.15731206 480.23125761 240.70704079 480.24202538 C249.68874047 480.25113408 258.67040879 480.25330254 267.65211109 480.24651595 C272.2326791 480.24325272 276.81318696 480.243187 281.39374924 480.2518692 C285.5914184 480.25974369 289.78897981 480.25829308 293.98664638 480.24958507 C295.50072532 480.24805218 297.01481235 480.24985824 298.52888177 480.25544515 C313.17450417 480.30588455 325.96485365 479.5446954 337 469 C345.63187082 458.994877 346.15326828 447.69632586 346.13371277 435.00445557 C346.13597833 433.91830106 346.13824388 432.83214654 346.14057809 431.71307826 C346.14689237 428.08507512 346.1460904 424.45710958 346.14526367 420.82910156 C346.14825663 418.22360689 346.15165947 415.61811266 346.15544128 413.01261902 C346.16372733 406.67833234 346.16649513 400.34405497 346.16705366 394.00976333 C346.16752947 388.86267565 346.16958742 383.71559104 346.17275429 378.56850433 C346.18155259 363.9715856 346.18617455 349.3746742 346.18542381 334.77775279 C346.18538386 333.99177308 346.1853439 333.20579337 346.18530273 332.39599609 C346.18526185 331.60905643 346.18522097 330.82211677 346.18517885 330.01133046 C346.18477185 317.23990566 346.19435728 304.46851027 346.2084411 291.69709399 C346.22279243 278.57963537 346.22971208 265.4621911 346.22884732 252.34472442 C346.22851509 244.98157619 346.23127413 237.61845885 346.24202538 230.25531769 C346.25206177 223.33767944 346.25180792 216.42010762 346.24450874 209.5024662 C346.24345909 206.95952319 346.2458482 204.41657616 346.2518692 201.87364006 C346.25953786 198.41155191 346.2549785 194.94969276 346.24723816 191.48760986 C346.2549535 189.9666204 346.2549535 189.9666204 346.26282471 188.41490388 C346.25592652 187.02570823 346.25592652 187.02570823 346.24888897 185.60844803 C346.24910634 184.80929639 346.24932371 184.01014475 346.24954766 183.1867764 C345.96377806 180.68258853 345.38821295 179.10192986 344 177 C340.52209983 175.84069994 337.41821451 175.86064985 333.80162144 175.87136555 C333.05985062 175.86961251 332.3180798 175.86785947 331.55383107 175.86605331 C329.04852875 175.86137205 326.54328394 175.86386426 324.03797913 175.86628723 C322.23157769 175.86442033 320.42517665 175.86212012 318.61877626 175.85942191 C313.63938285 175.85328259 308.66000616 175.85344 303.68060982 175.85461628 C298.31652511 175.85481975 292.95244584 175.84930672 287.58836365 175.84455872 C277.07370149 175.83624011 266.55904495 175.83350334 256.04437978 175.83294634 C247.50138683 175.83247178 238.95839573 175.83042007 230.41540337 175.82724571 C206.21555209 175.81843611 182.01570525 175.81382686 157.81585235 175.81457619 C156.51029539 175.81461614 155.20473843 175.8146561 153.85961914 175.81469727 C151.89890385 175.81475859 151.89890385 175.81475859 149.89857816 175.81482115 C128.70418979 175.81522778 107.50981918 175.80565461 86.31543595 175.7915589 C64.57388181 175.77721291 42.83233634 175.77028772 21.09077734 175.77115268 C8.87619015 175.77148524 -3.33837842 175.768712 -15.55296135 175.75797462 C-25.95095005 175.74889299 -36.3489117 175.74667507 -46.74690264 175.75348405 C-52.0556615 175.75676102 -57.3643684 175.75676373 -62.67312241 175.7481308 C-67.5281369 175.74031665 -72.38305777 175.74164469 -77.23806984 175.75041493 C-78.99914373 175.75196121 -80.76022443 175.75009179 -82.52129029 175.74455485 C-84.90623537 175.73755006 -87.29084699 175.74274451 -89.6757803 175.75111103 C-90.367118 175.74614285 -91.05845571 175.74117467 -91.77074304 175.73605594 C-95.30954367 175.7624878 -98.08707037 175.87267743 -101 178 Z " fill="currentColor"/>
</svg>
